<svg xmlns="http://www.w3.org/2000/svg" version="1.1" xmlns:xlink="http://www.w3.org/1999/xlink" xmlns:svgjs="http://svgjs.com/svgjs" width="512" height="512" x="0" y="0" viewBox="0 0 24 24" style="enable-background:new 0 0 512 512" xml:space="preserve" class=""><g><switch><g><path d="m18 24h-12c-3.3 0-6-2.7-6-6v-12c0-3.3 2.7-6 6-6h12c3.3 0 6 2.7 6 6v12c0 3.3-2.7 6-6 6z" fill="#ffe200" data-original="#02bc7d" class=""></path><path d="m9.9 18c-.3 0-.5-.1-.7-.3l-4.9-5.2c-.4-.4-.4-1 0-1.4s1-.4 1.4 0l4.1 4.4 8.4-9.2c.3-.4 1-.5 1.4-.2s.5 1 .2 1.4l-.1.1-9.1 10c-.1.3-.4.4-.7.4z" fill="#ffffff" data-original="#ffffff"></path></g></switch></g></svg>