<svg xmlns="http://www.w3.org/2000/svg" version="1.1" xmlns:xlink="http://www.w3.org/1999/xlink" xmlns:svgjs="http://svgjs.com/svgjs" width="512" height="512" x="0" y="0" viewBox="0 0 440 439" style="enable-background:new 0 0 512 512" xml:space="preserve" class=""><g><path d="m219.960938 286.753906c-29.75-.019531-59.308594-4.679687-87.621094-13.8125l-106.339844-34.078125v123.347657c0 22.46875 17.453125 40.289062 38.699219 40.289062h310.601562c21.246094 0 38.699219-17.820312 38.699219-40.289062v-123.347657l-106.363281 34.082031c-28.332031 9.128907-57.914063 13.789063-87.675781 13.808594zm0 0" fill="#ffe200" data-original="#000000" class=""></path><path d="m230 160.5v-35h-20v35c0 4.417969-3.582031 8-8 8h-35v20h35c4.417969 0 8 3.582031 8 8v35h20v-35c0-4.417969 3.582031-8 8-8h35v-20h-35c-4.417969 0-8-3.582031-8-8zm0 0" fill="#ffe200" data-original="#000000" class=""></path><path d="m401.46875 72.5h-93.46875v-27.898438c0-24.570312-19.558594-44.101562-43.210938-44.101562h-95.972656c-23.652344 0-42.816406 19.53125-42.816406 44.101562v27.898438h-87.46875c-21.246094 0-38.53125 18-38.53125 40.46875v70.472656c0 18.078125 10.992188 33.75 27.351562 39l109.964844 35.269532c53.75 17.386718 111.613282 17.386718 165.363282 0l109.96875-35.273438c16.359374-5.246094 27.351562-20.917969 27.351562-39v-70.46875c0-22.46875-17.285156-40.46875-38.53125-40.46875zm-112.46875 124c0 4.417969-3.582031 8-8 8h-35v35c0 4.417969-3.582031 8-8 8h-36c-4.417969 0-8-3.582031-8-8v-35h-35c-4.417969 0-8-3.582031-8-8v-36c0-4.417969 3.582031-8 8-8h35v-35c0-4.417969 3.582031-8 8-8h36c4.417969 0 8 3.582031 8 8v35h35c4.417969 0 8 3.582031 8 8zm3-124h-150v-27.898438c0-15.75 11.984375-28.101562 26.816406-28.101562h95.972656c14.832032 0 27.210938 12.351562 27.210938 28.101562zm0 0" fill="#ffe200" data-original="#000000" class=""></path></g></svg>