<svg xmlns="http://www.w3.org/2000/svg" version="1.1" xmlns:xlink="http://www.w3.org/1999/xlink" xmlns:svgjs="http://svgjs.com/svgjs" width="512" height="512" x="0" y="0" viewBox="0 0 476.16 476.16" style="enable-background:new 0 0 512 512" xml:space="preserve" class=""><g>
<g>
	<g>
		<path d="M238.08,0C106.496,0,0,106.496,0,238.08s106.496,238.08,238.08,238.08s238.08-106.496,238.08-238.08S369.664,0,238.08,0z
			 M217.6,77.824c0-11.264,9.216-20.48,20.48-20.48c11.264,0,20.48,9.216,20.48,20.48v24.064c0,11.264-9.216,20.48-20.48,20.48
			c-11.264,0-20.48-9.216-20.48-20.48V77.824z M101.376,258.56H77.312c-11.264,0-20.48-9.216-20.48-20.48
			c0-11.264,9.216-20.48,20.48-20.48h24.064c11.264,0,20.48,9.216,20.48,20.48C121.856,249.344,112.64,258.56,101.376,258.56z
			 M156.16,155.648c-8.192,8.192-20.992,8.192-29.184,0.512l-16.896-17.408c-8.192-8.192-8.192-20.992,0-29.184
			c8.192-8.192,20.992-8.192,29.184,0l16.896,16.896C164.352,134.656,164.352,147.456,156.16,155.648z M264.192,292.352
			c-8.192,4.096-16.896,5.632-26.112,5.632c-35.84,0-64-31.232-59.392-68.096c2.56-18.432,13.312-34.816,29.696-44.032
			c17.92-10.24,38.4-10.24,55.296-2.048l73.728-73.728c8.192-8.192,20.992-8.192,29.184,0c8.192,8.192,8.192,20.992,0,29.184
			l-74.24,73.216C306.688,242.176,293.888,278.016,264.192,292.352z M398.336,258.56h-24.064c-11.264,0-20.48-9.216-20.48-20.48
			c0-11.264,9.216-20.48,20.48-20.48h24.064c11.264,0,20.48,9.216,20.48,20.48C418.816,249.344,409.6,258.56,398.336,258.56z" fill="#ffe200" data-original="#000000" class=""></path>
	</g>
</g>
<g>
</g>
<g>
</g>
<g>
</g>
<g>
</g>
<g>
</g>
<g>
</g>
<g>
</g>
<g>
</g>
<g>
</g>
<g>
</g>
<g>
</g>
<g>
</g>
<g>
</g>
<g>
</g>
<g>
</g>
</g></svg>